# xmcd
#
# Track frame offsets:
#	150
#	16475
#	33482
#	48805
#	64567
#	82945
#	98797
#	117167
#	138100
#
# Disc length: 2008
#
# Revision: 1
# Processed by: cddbd v1.5.1PL0 Copyright (c) Steve Scherf et al.
# Submitted via: uFREEDB 1.6.0
# Normalized: r0:TDELIM( - )
#
DISCID=6407d609
DTITLE=Promo - Pormo Vol 4
DYEAR=1991
DGENRE=Country
TTITLE0=Michelle Wright - All You Really Wanna Do
TTITLE1=The Desert Rose Band - Come A Little Closer
TTITLE2=Alan Jackson - Don't Rock The Jukebox
TTITLE3=Waylon Patton - Fellow Travelers
TTITLE4=Dean Dillon - Friday Night's Woman
TTITLE5=Skip Ewing - I Get The Picture
TTITLE6=Marilyn Sellars - Love Lifted Me
TTITLE7=Trisha Yearwood - She's In Love With The Boy
TTITLE8=Wild Rose - Straight And Narrow
EXTD=
EXTT0=
EXTT1=
EXTT2=
EXTT3=
EXTT4=
EXTT5=
EXTT6=
EXTT7=
EXTT8=
PLAYORDER=
